<svg width="543" height="659" viewBox="0 0 543 659" fill="none" xmlns="http://www.w3.org/2000/svg">
<g filter="url(#filter0_d)">
<rect x="20" y="16" width="503" height="618.027" rx="29" fill="white"/>
</g>
<path d="M160.84 480.275H154.687L142.711 460.629V480.275H136.558V450.416H142.711L154.708 470.103V450.416H160.84V480.275ZM176.036 480.685C172.782 480.685 170.13 479.687 168.079 477.691C166.042 475.695 165.023 473.036 165.023 469.714V469.139C165.023 466.911 165.454 464.922 166.315 463.172C167.177 461.408 168.393 460.055 169.966 459.111C171.552 458.154 173.356 457.676 175.38 457.676C178.415 457.676 180.801 458.633 182.537 460.547C184.287 462.461 185.162 465.175 185.162 468.688V471.108H171.032C171.224 472.557 171.798 473.72 172.755 474.595C173.725 475.47 174.949 475.907 176.426 475.907C178.709 475.907 180.493 475.08 181.778 473.426L184.69 476.686C183.802 477.944 182.599 478.929 181.081 479.639C179.563 480.337 177.882 480.685 176.036 480.685ZM175.359 462.474C174.183 462.474 173.226 462.871 172.488 463.664C171.764 464.457 171.299 465.592 171.094 467.068H179.338V466.596C179.31 465.284 178.955 464.272 178.271 463.561C177.588 462.837 176.617 462.474 175.359 462.474ZM207.844 472.216L210.756 458.086H216.477L210.817 480.275H205.854L201.65 466.309L197.446 480.275H192.504L186.844 458.086H192.565L195.457 472.195L199.517 458.086H203.804L207.844 472.216ZM245.763 472.441C245.763 471.279 245.352 470.39 244.532 469.775C243.712 469.146 242.235 468.49 240.102 467.806C237.97 467.109 236.281 466.426 235.037 465.756C231.646 463.924 229.951 461.456 229.951 458.352C229.951 456.739 230.402 455.304 231.305 454.046C232.221 452.774 233.526 451.783 235.222 451.072C236.931 450.361 238.845 450.006 240.964 450.006C243.097 450.006 244.997 450.395 246.665 451.175C248.333 451.94 249.625 453.027 250.541 454.435C251.471 455.844 251.935 457.443 251.935 459.234H245.783C245.783 457.867 245.352 456.807 244.491 456.055C243.63 455.29 242.42 454.907 240.861 454.907C239.357 454.907 238.188 455.228 237.354 455.871C236.52 456.5 236.103 457.334 236.103 458.373C236.103 459.344 236.589 460.157 237.559 460.813C238.544 461.47 239.986 462.085 241.887 462.659C245.387 463.712 247.936 465.017 249.536 466.576C251.136 468.135 251.935 470.076 251.935 472.4C251.935 474.984 250.958 477.014 249.003 478.491C247.048 479.954 244.416 480.685 241.107 480.685C238.81 480.685 236.719 480.268 234.832 479.434C232.945 478.587 231.503 477.431 230.505 475.969C229.52 474.506 229.028 472.81 229.028 470.883H235.201C235.201 474.178 237.17 475.825 241.107 475.825C242.57 475.825 243.712 475.531 244.532 474.943C245.352 474.342 245.763 473.508 245.763 472.441ZM262.825 452.631V458.086H266.619V462.433H262.825V473.508C262.825 474.328 262.982 474.916 263.297 475.271C263.611 475.627 264.213 475.805 265.101 475.805C265.758 475.805 266.339 475.757 266.845 475.661V480.152C265.683 480.508 264.486 480.685 263.256 480.685C259.1 480.685 256.98 478.587 256.898 474.389V462.433H253.658V458.086H256.898V452.631H262.825ZM283.21 478.019C281.747 479.797 279.724 480.685 277.14 480.685C274.761 480.685 272.942 480.002 271.684 478.635C270.44 477.267 269.805 475.264 269.777 472.626V458.086H275.704V472.421C275.704 474.731 276.757 475.887 278.862 475.887C280.872 475.887 282.253 475.189 283.005 473.795V458.086H288.952V480.275H283.374L283.21 478.019ZM292.5 469.016C292.5 465.557 293.272 462.803 294.817 460.752C296.376 458.701 298.502 457.676 301.195 457.676C303.355 457.676 305.14 458.482 306.548 460.096V448.775H312.495V480.275H307.142L306.855 477.917C305.379 479.763 303.478 480.685 301.154 480.685C298.543 480.685 296.444 479.66 294.858 477.609C293.286 475.545 292.5 472.68 292.5 469.016ZM298.427 469.447C298.427 471.525 298.789 473.118 299.514 474.225C300.238 475.333 301.291 475.887 302.672 475.887C304.504 475.887 305.796 475.114 306.548 473.569V464.812C305.809 463.267 304.531 462.495 302.713 462.495C299.855 462.495 298.427 464.812 298.427 469.447ZM325.374 471.888L329.475 458.086H335.833L326.912 483.721L326.42 484.889C325.094 487.788 322.906 489.237 319.857 489.237C318.996 489.237 318.121 489.107 317.232 488.847V484.356L318.135 484.377C319.256 484.377 320.09 484.206 320.637 483.864C321.197 483.522 321.635 482.955 321.949 482.162L322.646 480.337L314.874 458.086H321.252L325.374 471.888ZM364.503 472.441C364.503 471.279 364.093 470.39 363.272 469.775C362.452 469.146 360.975 468.49 358.843 467.806C356.71 467.109 355.021 466.426 353.777 465.756C350.387 463.924 348.691 461.456 348.691 458.352C348.691 456.739 349.142 455.304 350.045 454.046C350.961 452.774 352.266 451.783 353.962 451.072C355.671 450.361 357.585 450.006 359.704 450.006C361.837 450.006 363.737 450.395 365.405 451.175C367.073 451.94 368.365 453.027 369.281 454.435C370.211 455.844 370.676 457.443 370.676 459.234H364.523C364.523 457.867 364.093 456.807 363.231 456.055C362.37 455.29 361.16 454.907 359.601 454.907C358.098 454.907 356.929 455.228 356.095 455.871C355.261 456.5 354.844 457.334 354.844 458.373C354.844 459.344 355.329 460.157 356.3 460.813C357.284 461.47 358.726 462.085 360.627 462.659C364.127 463.712 366.677 465.017 368.276 466.576C369.876 468.135 370.676 470.076 370.676 472.4C370.676 474.984 369.698 477.014 367.743 478.491C365.788 479.954 363.156 480.685 359.848 480.685C357.551 480.685 355.459 480.268 353.572 479.434C351.685 478.587 350.243 477.431 349.245 475.969C348.261 474.506 347.768 472.81 347.768 470.883H353.941C353.941 474.178 355.91 475.825 359.848 475.825C361.31 475.825 362.452 475.531 363.272 474.943C364.093 474.342 364.503 473.508 364.503 472.441ZM384.682 480.685C381.429 480.685 378.776 479.687 376.725 477.691C374.688 475.695 373.67 473.036 373.67 469.714V469.139C373.67 466.911 374.1 464.922 374.962 463.172C375.823 461.408 377.04 460.055 378.612 459.111C380.198 458.154 382.003 457.676 384.026 457.676C387.061 457.676 389.447 458.633 391.183 460.547C392.933 462.461 393.808 465.175 393.808 468.688V471.108H379.679C379.87 472.557 380.444 473.72 381.401 474.595C382.372 475.47 383.596 475.907 385.072 475.907C387.355 475.907 389.14 475.08 390.425 473.426L393.337 476.686C392.448 477.944 391.245 478.929 389.727 479.639C388.21 480.337 386.528 480.685 384.682 480.685ZM384.006 462.474C382.83 462.474 381.873 462.871 381.135 463.664C380.41 464.457 379.945 465.592 379.74 467.068H387.984V466.596C387.957 465.284 387.601 464.272 386.918 463.561C386.234 462.837 385.264 462.474 384.006 462.474ZM404.288 452.631V458.086H408.082V462.433H404.288V473.508C404.288 474.328 404.445 474.916 404.76 475.271C405.074 475.627 405.676 475.805 406.564 475.805C407.221 475.805 407.802 475.757 408.307 475.661V480.152C407.145 480.508 405.949 480.685 404.719 480.685C400.562 480.685 398.443 478.587 398.361 474.389V462.433H395.121V458.086H398.361V452.631H404.288Z" fill="#183446"/>
<path d="M276.327 231.599H337.245V244.94C337.245 252.945 342.429 258.281 350.206 258.281C357.983 258.281 363.167 252.945 363.167 244.94V204.917L272.438 111.531H170.044C155.787 111.531 142.826 124.872 142.826 139.547V323.652C142.826 338.327 155.787 351.668 170.044 351.668H259.477C267.254 351.668 272.438 346.331 272.438 338.327C272.438 330.322 267.254 324.986 259.477 324.986H170.044L168.748 323.652V139.547L170.044 138.213H246.516V200.915C246.516 218.258 259.477 231.599 276.327 231.599ZM272.438 200.915V150.22L325.58 204.917H276.327C273.735 204.917 272.438 203.583 272.438 200.915Z" fill="#0090C1"/>
<path d="M389.089 324.986H363.167V298.304C363.167 290.299 357.982 284.963 350.205 284.963C342.429 284.963 337.244 290.299 337.244 298.304V324.986H311.322C303.545 324.986 298.36 330.322 298.36 338.327C298.36 346.331 303.545 351.668 311.322 351.668H337.244V378.349C337.244 386.354 342.429 391.69 350.205 391.69C357.982 391.69 363.167 386.354 363.167 378.349V351.668H389.089C396.866 351.668 402.051 346.331 402.051 338.327C402.051 330.322 396.866 324.986 389.089 324.986Z" fill="#0090C1"/>
<defs>
<filter id="filter0_d" x="0" y="0" width="543" height="658.027" filterUnits="userSpaceOnUse" color-interpolation-filters="sRGB">
<feFlood flood-opacity="0" result="BackgroundImageFix"/>
<feColorMatrix in="SourceAlpha" type="matrix" values="0 0 0 0 0 0 0 0 0 0 0 0 0 0 0 0 0 0 127 0"/>
<feOffset dy="4"/>
<feGaussianBlur stdDeviation="10"/>
<feColorMatrix type="matrix" values="0 0 0 0 0 0 0 0 0 0 0 0 0 0 0 0 0 0 0.25 0"/>
<feBlend mode="normal" in2="BackgroundImageFix" result="effect1_dropShadow"/>
<feBlend mode="normal" in="SourceGraphic" in2="effect1_dropShadow" result="shape"/>
</filter>
</defs>
</svg>
