<svg width="543" height="659" viewBox="0 0 543 659" fill="none" xmlns="http://www.w3.org/2000/svg">
<g filter="url(#filter0_d)">
<rect x="20" y="16" width="503" height="618.027" rx="29" fill="white"/>
</g>
<path d="M174.826 450.416V470.083C174.826 473.35 173.801 475.934 171.75 477.835C169.713 479.735 166.924 480.685 163.383 480.685C159.896 480.685 157.128 479.763 155.077 477.917C153.026 476.071 151.98 473.535 151.939 470.308V450.416H158.092V470.124C158.092 472.079 158.557 473.508 159.486 474.41C160.43 475.299 161.728 475.743 163.383 475.743C166.842 475.743 168.599 473.925 168.653 470.288V450.416H174.826ZM199.456 469.386C199.456 472.804 198.677 475.545 197.118 477.609C195.573 479.66 193.481 480.685 190.843 480.685C188.6 480.685 186.789 479.906 185.408 478.347V488.806H179.481V458.086H184.977L185.183 460.26C186.618 458.537 188.491 457.676 190.802 457.676C193.536 457.676 195.662 458.687 197.18 460.711C198.697 462.734 199.456 465.523 199.456 469.078V469.386ZM193.529 468.955C193.529 466.89 193.16 465.298 192.422 464.177C191.697 463.055 190.638 462.495 189.243 462.495C187.384 462.495 186.105 463.206 185.408 464.628V473.713C186.133 475.176 187.425 475.907 189.284 475.907C192.114 475.907 193.529 473.59 193.529 468.955ZM209.402 480.275H203.455V448.775H209.402V480.275ZM213.381 468.975C213.381 466.774 213.805 464.812 214.652 463.09C215.5 461.367 216.717 460.034 218.303 459.091C219.902 458.147 221.755 457.676 223.86 457.676C226.854 457.676 229.295 458.592 231.182 460.424C233.082 462.256 234.141 464.744 234.36 467.888L234.401 469.406C234.401 472.81 233.451 475.545 231.551 477.609C229.65 479.66 227.1 480.685 223.901 480.685C220.702 480.685 218.145 479.66 216.231 477.609C214.331 475.558 213.381 472.769 213.381 469.242V468.975ZM219.308 469.406C219.308 471.512 219.704 473.125 220.497 474.246C221.29 475.353 222.425 475.907 223.901 475.907C225.337 475.907 226.458 475.36 227.265 474.266C228.071 473.159 228.475 471.395 228.475 468.975C228.475 466.911 228.071 465.311 227.265 464.177C226.458 463.042 225.323 462.474 223.86 462.474C222.411 462.474 221.29 463.042 220.497 464.177C219.704 465.298 219.308 467.041 219.308 469.406ZM250.91 480.275C250.637 479.742 250.438 479.079 250.315 478.286C248.88 479.886 247.014 480.685 244.717 480.685C242.543 480.685 240.738 480.056 239.303 478.799C237.881 477.541 237.17 475.955 237.17 474.041C237.17 471.689 238.038 469.885 239.774 468.627C241.524 467.369 244.047 466.733 247.342 466.72H250.069V465.448C250.069 464.423 249.803 463.602 249.269 462.987C248.75 462.372 247.923 462.064 246.788 462.064C245.79 462.064 245.004 462.304 244.43 462.782C243.869 463.261 243.589 463.917 243.589 464.751H237.662C237.662 463.466 238.058 462.276 238.851 461.182C239.644 460.089 240.766 459.234 242.215 458.619C243.664 457.99 245.291 457.676 247.096 457.676C249.83 457.676 251.997 458.366 253.597 459.747C255.21 461.114 256.016 463.042 256.016 465.53V475.148C256.03 477.254 256.324 478.846 256.898 479.927V480.275H250.91ZM246.009 476.153C246.884 476.153 247.69 475.962 248.429 475.579C249.167 475.182 249.714 474.656 250.069 474V470.185H247.854C244.888 470.185 243.308 471.211 243.117 473.262L243.097 473.61C243.097 474.348 243.356 474.957 243.876 475.435C244.395 475.914 245.106 476.153 246.009 476.153ZM259.646 469.016C259.646 465.557 260.419 462.803 261.964 460.752C263.522 458.701 265.648 457.676 268.342 457.676C270.502 457.676 272.286 458.482 273.694 460.096V448.775H279.641V480.275H274.289L274.002 477.917C272.525 479.763 270.625 480.685 268.301 480.685C265.689 480.685 263.591 479.66 262.005 477.609C260.433 475.545 259.646 472.68 259.646 469.016ZM265.573 469.447C265.573 471.525 265.935 473.118 266.66 474.225C267.385 475.333 268.437 475.887 269.818 475.887C271.65 475.887 272.942 475.114 273.694 473.569V464.812C272.956 463.267 271.678 462.495 269.859 462.495C267.002 462.495 265.573 464.812 265.573 469.447ZM307.553 480.275C307.279 479.742 307.081 479.079 306.958 478.286C305.522 479.886 303.656 480.685 301.359 480.685C299.185 480.685 297.381 480.056 295.945 478.799C294.523 477.541 293.812 475.955 293.812 474.041C293.812 471.689 294.681 469.885 296.417 468.627C298.167 467.369 300.689 466.733 303.984 466.72H306.712V465.448C306.712 464.423 306.445 463.602 305.912 462.987C305.392 462.372 304.565 462.064 303.431 462.064C302.433 462.064 301.646 462.304 301.072 462.782C300.512 463.261 300.231 463.917 300.231 464.751H294.305C294.305 463.466 294.701 462.276 295.494 461.182C296.287 460.089 297.408 459.234 298.857 458.619C300.307 457.99 301.933 457.676 303.738 457.676C306.473 457.676 308.64 458.366 310.239 459.747C311.852 461.114 312.659 463.042 312.659 465.53V475.148C312.673 477.254 312.967 478.846 313.541 479.927V480.275H307.553ZM302.651 476.153C303.526 476.153 304.333 475.962 305.071 475.579C305.809 475.182 306.356 474.656 306.712 474V470.185H304.497C301.53 470.185 299.951 471.211 299.76 473.262L299.739 473.61C299.739 474.348 299.999 474.957 300.518 475.435C301.038 475.914 301.749 476.153 302.651 476.153ZM346.025 468.073H334.213V480.275H328.06V450.416H347.502V455.399H334.213V463.11H346.025V468.073ZM356.935 480.275H350.988V458.086H356.935V480.275ZM350.64 452.344C350.64 451.455 350.933 450.723 351.521 450.149C352.123 449.575 352.936 449.288 353.962 449.288C354.974 449.288 355.78 449.575 356.382 450.149C356.983 450.723 357.284 451.455 357.284 452.344C357.284 453.246 356.976 453.984 356.361 454.558C355.76 455.133 354.96 455.42 353.962 455.42C352.964 455.42 352.157 455.133 351.542 454.558C350.94 453.984 350.64 453.246 350.64 452.344ZM368.092 480.275H362.144V448.775H368.092V480.275ZM383.206 480.685C379.952 480.685 377.3 479.687 375.249 477.691C373.212 475.695 372.193 473.036 372.193 469.714V469.139C372.193 466.911 372.624 464.922 373.485 463.172C374.347 461.408 375.563 460.055 377.136 459.111C378.722 458.154 380.526 457.676 382.55 457.676C385.585 457.676 387.971 458.633 389.707 460.547C391.457 462.461 392.332 465.175 392.332 468.688V471.108H378.202C378.393 472.557 378.968 473.72 379.925 474.595C380.895 475.47 382.119 475.907 383.596 475.907C385.879 475.907 387.663 475.08 388.948 473.426L391.86 476.686C390.972 477.944 389.768 478.929 388.251 479.639C386.733 480.337 385.052 480.685 383.206 480.685ZM382.529 462.474C381.353 462.474 380.396 462.871 379.658 463.664C378.933 464.457 378.469 465.592 378.264 467.068H386.508V466.596C386.48 465.284 386.125 464.272 385.441 463.561C384.758 462.837 383.787 462.474 382.529 462.474Z" fill="#183446"/>
<path d="M276.327 231.599H337.245V244.94C337.245 252.945 342.429 258.281 350.206 258.281C357.983 258.281 363.167 252.945 363.167 244.94V204.917L272.438 111.531H170.044C155.787 111.531 142.826 124.872 142.826 139.547V323.652C142.826 338.327 155.787 351.668 170.044 351.668H259.477C267.254 351.668 272.438 346.331 272.438 338.327C272.438 330.322 267.254 324.986 259.477 324.986H170.044L168.748 323.652V139.547L170.044 138.213H246.516V200.915C246.516 218.258 259.477 231.599 276.327 231.599ZM272.438 200.915V150.22L325.58 204.917H276.327C273.735 204.917 272.438 203.583 272.438 200.915Z" fill="#0090C1"/>
<path d="M389.089 324.986H363.167V298.304C363.167 290.299 357.982 284.963 350.205 284.963C342.429 284.963 337.244 290.299 337.244 298.304V324.986H311.322C303.545 324.986 298.36 330.322 298.36 338.327C298.36 346.331 303.545 351.668 311.322 351.668H337.244V378.349C337.244 386.354 342.429 391.69 350.205 391.69C357.982 391.69 363.167 386.354 363.167 378.349V351.668H389.089C396.866 351.668 402.051 346.331 402.051 338.327C402.051 330.322 396.866 324.986 389.089 324.986Z" fill="#0090C1"/>
<defs>
<filter id="filter0_d" x="0" y="0" width="543" height="658.027" filterUnits="userSpaceOnUse" color-interpolation-filters="sRGB">
<feFlood flood-opacity="0" result="BackgroundImageFix"/>
<feColorMatrix in="SourceAlpha" type="matrix" values="0 0 0 0 0 0 0 0 0 0 0 0 0 0 0 0 0 0 127 0"/>
<feOffset dy="4"/>
<feGaussianBlur stdDeviation="10"/>
<feColorMatrix type="matrix" values="0 0 0 0 0 0 0 0 0 0 0 0 0 0 0 0 0 0 0.25 0"/>
<feBlend mode="normal" in2="BackgroundImageFix" result="effect1_dropShadow"/>
<feBlend mode="normal" in="SourceGraphic" in2="effect1_dropShadow" result="shape"/>
</filter>
</defs>
</svg>
